<svg width="50" height="50" viewBox="0 0 50 50" fill="none" xmlns="http://www.w3.org/2000/svg">
<rect x="0.5" y="0.5" width="49" height="49" rx="24.5" fill="white"/>
<rect x="0.5" y="0.5" width="49" height="49" rx="24.5" stroke="#E6E6E6"/>
<path d="M31.2376 26.7928C31.7624 26.2681 31.8373 25.5185 31.3876 24.7689C31.0128 24.1692 30.3381 23.8694 29.5885 24.0193C29.2887 24.0942 28.9888 24.2442 28.689 24.469C26.3652 26.0432 23.2168 25.9683 20.893 24.3941C20.7431 24.3191 20.5932 24.2442 20.4433 24.1692C19.6187 23.7944 18.7941 23.9443 18.3444 24.6939C17.8196 25.4435 17.8946 26.2681 18.5692 26.9428C18.7192 27.0927 18.8691 27.1676 18.944 27.3176L19.019 27.3925C20.0685 28.2171 21.3428 28.7418 22.9919 28.9667L22.0174 29.9412C21.1929 30.7658 20.2933 31.6653 19.4688 32.4899C19.2439 32.7148 18.944 33.0896 18.944 33.6143C18.944 34.2889 19.3188 34.9636 19.9935 35.2634C20.2184 35.4133 20.4433 35.4133 20.6681 35.4133C21.0429 35.4133 21.4927 35.2634 21.7926 34.8886C22.917 33.7642 23.8165 32.8647 24.716 31.9651C24.791 31.8902 24.791 31.8902 24.791 31.8902C24.791 31.8902 24.866 31.8902 24.866 31.9651C25.4656 32.6398 26.1403 33.2395 26.74 33.9141C27.0398 34.214 27.3397 34.5138 27.6395 34.8137C28.0143 35.1885 28.3142 35.3384 28.7639 35.3384C29.4386 35.4134 30.1882 34.9636 30.488 34.2889C30.7879 33.6892 30.638 32.9396 30.1132 32.4899C29.3636 31.7403 28.614 30.9157 27.7894 30.1661L26.5151 28.8917C27.1898 28.8168 27.9394 28.6669 28.614 28.367C29.7384 27.9922 30.563 27.4675 31.2376 26.7928Z" fill="black"/>
<path d="M24.791 24.6939C28.0143 24.6939 30.638 22.1452 30.638 18.9219C30.638 17.3477 30.0383 15.8485 28.9138 14.7241C27.7894 13.5997 26.3652 13 24.866 13C21.6426 13 19.094 15.6236 19.019 18.772C19.019 20.3462 19.6187 21.7704 20.7431 22.8948C21.7926 24.0942 23.2168 24.6939 24.791 24.6939ZM23.1419 17.1978C23.5916 16.7481 24.1913 16.5232 24.791 16.5232C26.1403 16.5232 27.1148 17.5726 27.1148 18.847C27.1148 20.1963 26.0653 21.1707 24.791 21.1707C23.4417 21.1707 22.4672 20.1213 22.4672 18.847C22.4672 18.2473 22.6921 17.6476 23.1419 17.1978Z" fill="black"/>
<path d="M31.2376 26.7928C31.7624 26.2681 31.8373 25.5185 31.3876 24.7689C31.0128 24.1692 30.3381 23.8694 29.5885 24.0193C29.2887 24.0942 28.9888 24.2442 28.689 24.469C26.3652 26.0432 23.2168 25.9683 20.893 24.3941C20.7431 24.3191 20.5932 24.2442 20.4433 24.1692C19.6187 23.7944 18.7941 23.9443 18.3444 24.6939C17.8196 25.4435 17.8946 26.2681 18.5692 26.9428C18.7192 27.0927 18.8691 27.1676 18.944 27.3176L19.019 27.3925C20.0685 28.2171 21.3428 28.7418 22.9919 28.9667L22.0174 29.9412C21.1929 30.7658 20.2933 31.6653 19.4688 32.4899C19.2439 32.7148 18.944 33.0896 18.944 33.6143C18.944 34.2889 19.3188 34.9636 19.9935 35.2634C20.2184 35.4133 20.4433 35.4133 20.6681 35.4133C21.0429 35.4133 21.4927 35.2634 21.7926 34.8886C22.917 33.7642 23.8165 32.8647 24.716 31.9651C24.791 31.8902 24.791 31.8902 24.791 31.8902C24.791 31.8902 24.866 31.8902 24.866 31.9651C25.4656 32.6398 26.1403 33.2395 26.74 33.9141C27.0398 34.214 27.3397 34.5138 27.6395 34.8137C28.0143 35.1885 28.3142 35.3384 28.7639 35.3384C29.4386 35.4134 30.1882 34.9636 30.488 34.2889C30.7879 33.6892 30.638 32.9396 30.1132 32.4899C29.3636 31.7403 28.614 30.9157 27.7894 30.1661L26.5151 28.8917C27.1898 28.8168 27.9394 28.6669 28.614 28.367C29.7384 27.9922 30.563 27.4675 31.2376 26.7928Z" fill="black"/>
</svg>
