<svg width="150" height="150" viewBox="0 0 150 150" fill="none" xmlns="http://www.w3.org/2000/svg">
<rect width="150" height="150" fill="white"/>
<g clip-path="url(#clip0_601_4482)">
<path d="M135 15H15V135H135V15Z" fill="white"/>
<path d="M20.7143 15H15V20.7143H20.7143V15Z" fill="black"/>
<path d="M26.4282 15H20.7139V20.7143H26.4282V15Z" fill="black"/>
<path d="M32.143 15H26.4287V20.7143H32.143V15Z" fill="black"/>
<path d="M37.8569 15H32.1426V20.7143H37.8569V15Z" fill="black"/>
<path d="M43.5717 15H37.8574V20.7143H43.5717V15Z" fill="black"/>
<path d="M49.2856 15H43.5713V20.7143H49.2856V15Z" fill="black"/>
<path d="M55.0004 15H49.2861V20.7143H55.0004V15Z" fill="black"/>
<path d="M72.143 15H66.4287V20.7143H72.143V15Z" fill="black"/>
<path d="M77.8569 15H72.1426V20.7143H77.8569V15Z" fill="black"/>
<path d="M83.5717 15H77.8574V20.7143H83.5717V15Z" fill="black"/>
<path d="M100.714 15H95V20.7143H100.714V15Z" fill="black"/>
<path d="M106.428 15H100.714V20.7143H106.428V15Z" fill="black"/>
<path d="M112.143 15H106.429V20.7143H112.143V15Z" fill="black"/>
<path d="M117.857 15H112.143V20.7143H117.857V15Z" fill="black"/>
<path d="M123.572 15H117.857V20.7143H123.572V15Z" fill="black"/>
<path d="M129.286 15H123.571V20.7143H129.286V15Z" fill="black"/>
<path d="M135 15H129.286V20.7143H135V15Z" fill="black"/>
<path d="M20.7143 20.7143H15V26.4286H20.7143V20.7143Z" fill="black"/>
<path d="M55.0004 20.7143H49.2861V26.4286H55.0004V20.7143Z" fill="black"/>
<path d="M66.4282 20.7143H60.7139V26.4286H66.4282V20.7143Z" fill="black"/>
<path d="M72.143 20.7143H66.4287V26.4286H72.143V20.7143Z" fill="black"/>
<path d="M77.8569 20.7143H72.1426V26.4286H77.8569V20.7143Z" fill="black"/>
<path d="M83.5717 20.7143H77.8574V26.4286H83.5717V20.7143Z" fill="black"/>
<path d="M100.714 20.7143H95V26.4286H100.714V20.7143Z" fill="black"/>
<path d="M135 20.7143H129.286V26.4286H135V20.7143Z" fill="black"/>
<path d="M20.7143 26.4286H15V32.1429H20.7143V26.4286Z" fill="black"/>
<path d="M32.143 26.4286H26.4287V32.1429H32.143V26.4286Z" fill="black"/>
<path d="M37.8569 26.4286H32.1426V32.1429H37.8569V26.4286Z" fill="black"/>
<path d="M43.5717 26.4286H37.8574V32.1429H43.5717V26.4286Z" fill="black"/>
<path d="M55.0004 26.4286H49.2861V32.1429H55.0004V26.4286Z" fill="black"/>
<path d="M66.4282 26.4286H60.7139V32.1429H66.4282V26.4286Z" fill="black"/>
<path d="M77.8569 26.4286H72.1426V32.1429H77.8569V26.4286Z" fill="black"/>
<path d="M83.5717 26.4286H77.8574V32.1429H83.5717V26.4286Z" fill="black"/>
<path d="M89.2856 26.4286H83.5713V32.1429H89.2856V26.4286Z" fill="black"/>
<path d="M100.714 26.4286H95V32.1429H100.714V26.4286Z" fill="black"/>
<path d="M112.143 26.4286H106.429V32.1429H112.143V26.4286Z" fill="black"/>
<path d="M117.857 26.4286H112.143V32.1429H117.857V26.4286Z" fill="black"/>
<path d="M123.572 26.4286H117.857V32.1429H123.572V26.4286Z" fill="black"/>
<path d="M135 26.4286H129.286V32.1429H135V26.4286Z" fill="black"/>
<path d="M20.7143 32.1429H15V37.8571H20.7143V32.1429Z" fill="black"/>
<path d="M32.143 32.1429H26.4287V37.8571H32.143V32.1429Z" fill="black"/>
<path d="M37.8569 32.1429H32.1426V37.8571H37.8569V32.1429Z" fill="black"/>
<path d="M43.5717 32.1429H37.8574V37.8571H43.5717V32.1429Z" fill="black"/>
<path d="M55.0004 32.1429H49.2861V37.8571H55.0004V32.1429Z" fill="black"/>
<path d="M66.4282 32.1429H60.7139V37.8571H66.4282V32.1429Z" fill="black"/>
<path d="M77.8569 32.1429H72.1426V37.8571H77.8569V32.1429Z" fill="black"/>
<path d="M83.5717 32.1429H77.8574V37.8571H83.5717V32.1429Z" fill="black"/>
<path d="M89.2856 32.1429H83.5713V37.8571H89.2856V32.1429Z" fill="black"/>
<path d="M100.714 32.1429H95V37.8571H100.714V32.1429Z" fill="black"/>
<path d="M112.143 32.1429H106.429V37.8571H112.143V32.1429Z" fill="black"/>
<path d="M117.857 32.1429H112.143V37.8571H117.857V32.1429Z" fill="black"/>
<path d="M123.572 32.1429H117.857V37.8571H123.572V32.1429Z" fill="black"/>
<path d="M135 32.1429H129.286V37.8571H135V32.1429Z" fill="black"/>
<path d="M20.7143 37.8571H15V43.5714H20.7143V37.8571Z" fill="black"/>
<path d="M32.143 37.8571H26.4287V43.5714H32.143V37.8571Z" fill="black"/>
<path d="M37.8569 37.8571H32.1426V43.5714H37.8569V37.8571Z" fill="black"/>
<path d="M43.5717 37.8571H37.8574V43.5714H43.5717V37.8571Z" fill="black"/>
<path d="M55.0004 37.8571H49.2861V43.5714H55.0004V37.8571Z" fill="black"/>
<path d="M66.4282 37.8571H60.7139V43.5714H66.4282V37.8571Z" fill="black"/>
<path d="M72.143 37.8571H66.4287V43.5714H72.143V37.8571Z" fill="black"/>
<path d="M77.8569 37.8571H72.1426V43.5714H77.8569V37.8571Z" fill="black"/>
<path d="M83.5717 37.8571H77.8574V43.5714H83.5717V37.8571Z" fill="black"/>
<path d="M89.2856 37.8571H83.5713V43.5714H89.2856V37.8571Z" fill="black"/>
<path d="M100.714 37.8571H95V43.5714H100.714V37.8571Z" fill="black"/>
<path d="M112.143 37.8571H106.429V43.5714H112.143V37.8571Z" fill="black"/>
<path d="M117.857 37.8571H112.143V43.5714H117.857V37.8571Z" fill="black"/>
<path d="M123.572 37.8571H117.857V43.5714H123.572V37.8571Z" fill="black"/>
<path d="M135 37.8571H129.286V43.5714H135V37.8571Z" fill="black"/>
<path d="M20.7143 43.5714H15V49.2857H20.7143V43.5714Z" fill="black"/>
<path d="M55.0004 43.5714H49.2861V49.2857H55.0004V43.5714Z" fill="black"/>
<path d="M66.4282 43.5714H60.7139V49.2857H66.4282V43.5714Z" fill="black"/>
<path d="M83.5717 43.5714H77.8574V49.2857H83.5717V43.5714Z" fill="black"/>
<path d="M100.714 43.5714H95V49.2857H100.714V43.5714Z" fill="black"/>
<path d="M135 43.5714H129.286V49.2857H135V43.5714Z" fill="black"/>
<path d="M20.7143 49.2857H15V55H20.7143V49.2857Z" fill="black"/>
<path d="M26.4282 49.2857H20.7139V55H26.4282V49.2857Z" fill="black"/>
<path d="M32.143 49.2857H26.4287V55H32.143V49.2857Z" fill="black"/>
<path d="M37.8569 49.2857H32.1426V55H37.8569V49.2857Z" fill="black"/>
<path d="M43.5717 49.2857H37.8574V55H43.5717V49.2857Z" fill="black"/>
<path d="M49.2856 49.2857H43.5713V55H49.2856V49.2857Z" fill="black"/>
<path d="M55.0004 49.2857H49.2861V55H55.0004V49.2857Z" fill="black"/>
<path d="M66.4282 49.2857H60.7139V55H66.4282V49.2857Z" fill="black"/>
<path d="M77.8569 49.2857H72.1426V55H77.8569V49.2857Z" fill="black"/>
<path d="M89.2856 49.2857H83.5713V55H89.2856V49.2857Z" fill="black"/>
<path d="M100.714 49.2857H95V55H100.714V49.2857Z" fill="black"/>
<path d="M106.428 49.2857H100.714V55H106.428V49.2857Z" fill="black"/>
<path d="M112.143 49.2857H106.429V55H112.143V49.2857Z" fill="black"/>
<path d="M117.857 49.2857H112.143V55H117.857V49.2857Z" fill="black"/>
<path d="M123.572 49.2857H117.857V55H123.572V49.2857Z" fill="black"/>
<path d="M129.286 49.2857H123.571V55H129.286V49.2857Z" fill="black"/>
<path d="M135 49.2857H129.286V55H135V49.2857Z" fill="black"/>
<path d="M72.143 55H66.4287V60.7143H72.143V55Z" fill="black"/>
<path d="M77.8569 55H72.1426V60.7143H77.8569V55Z" fill="black"/>
<path d="M83.5717 55H77.8574V60.7143H83.5717V55Z" fill="black"/>
<path d="M89.2856 55H83.5713V60.7143H89.2856V55Z" fill="black"/>
<path d="M32.143 60.7143H26.4287V66.4286H32.143V60.7143Z" fill="black"/>
<path d="M49.2856 60.7143H43.5713V66.4286H49.2856V60.7143Z" fill="black"/>
<path d="M55.0004 60.7143H49.2861V66.4286H55.0004V60.7143Z" fill="black"/>
<path d="M60.7143 60.7143H55V66.4286H60.7143V60.7143Z" fill="black"/>
<path d="M66.4282 60.7143H60.7139V66.4286H66.4282V60.7143Z" fill="black"/>
<path d="M72.143 60.7143H66.4287V66.4286H72.143V60.7143Z" fill="black"/>
<path d="M77.8569 60.7143H72.1426V66.4286H77.8569V60.7143Z" fill="black"/>
<path d="M83.5717 60.7143H77.8574V66.4286H83.5717V60.7143Z" fill="black"/>
<path d="M89.2856 60.7143H83.5713V66.4286H89.2856V60.7143Z" fill="black"/>
<path d="M95.0004 60.7143H89.2861V66.4286H95.0004V60.7143Z" fill="black"/>
<path d="M106.428 60.7143H100.714V66.4286H106.428V60.7143Z" fill="black"/>
<path d="M112.143 60.7143H106.429V66.4286H112.143V60.7143Z" fill="black"/>
<path d="M117.857 60.7143H112.143V66.4286H117.857V60.7143Z" fill="black"/>
<path d="M123.572 60.7143H117.857V66.4286H123.572V60.7143Z" fill="black"/>
<path d="M129.286 60.7143H123.571V66.4286H129.286V60.7143Z" fill="black"/>
<path d="M32.143 66.4286H26.4287V72.1429H32.143V66.4286Z" fill="black"/>
<path d="M37.8569 66.4286H32.1426V72.1429H37.8569V66.4286Z" fill="black"/>
<path d="M43.5717 66.4286H37.8574V72.1429H43.5717V66.4286Z" fill="black"/>
<path d="M66.4282 66.4286H60.7139V72.1429H66.4282V66.4286Z" fill="black"/>
<path d="M72.143 66.4286H66.4287V72.1429H72.143V66.4286Z" fill="black"/>
<path d="M83.5717 66.4286H77.8574V72.1429H83.5717V66.4286Z" fill="black"/>
<path d="M100.714 66.4286H95V72.1429H100.714V66.4286Z" fill="black"/>
<path d="M117.857 66.4286H112.143V72.1429H117.857V66.4286Z" fill="black"/>
<path d="M129.286 66.4286H123.571V72.1429H129.286V66.4286Z" fill="black"/>
<path d="M37.8569 72.1429H32.1426V77.8571H37.8569V72.1429Z" fill="black"/>
<path d="M49.2856 72.1429H43.5713V77.8571H49.2856V72.1429Z" fill="black"/>
<path d="M55.0004 72.1429H49.2861V77.8571H55.0004V72.1429Z" fill="black"/>
<path d="M60.7143 72.1429H55V77.8571H60.7143V72.1429Z" fill="black"/>
<path d="M66.4282 72.1429H60.7139V77.8571H66.4282V72.1429Z" fill="black"/>
<path d="M72.143 72.1429H66.4287V77.8571H72.143V72.1429Z" fill="black"/>
<path d="M77.8569 72.1429H72.1426V77.8571H77.8569V72.1429Z" fill="black"/>
<path d="M106.428 72.1429H100.714V77.8571H106.428V72.1429Z" fill="black"/>
<path d="M112.143 72.1429H106.429V77.8571H112.143V72.1429Z" fill="black"/>
<path d="M135 72.1429H129.286V77.8571H135V72.1429Z" fill="black"/>
<path d="M20.7143 77.8571H15V83.5714H20.7143V77.8571Z" fill="black"/>
<path d="M26.4282 77.8571H20.7139V83.5714H26.4282V77.8571Z" fill="black"/>
<path d="M32.143 77.8571H26.4287V83.5714H32.143V77.8571Z" fill="black"/>
<path d="M37.8569 77.8571H32.1426V83.5714H37.8569V77.8571Z" fill="black"/>
<path d="M43.5717 77.8571H37.8574V83.5714H43.5717V77.8571Z" fill="black"/>
<path d="M60.7143 77.8571H55V83.5714H60.7143V77.8571Z" fill="black"/>
<path d="M123.572 77.8571H117.857V83.5714H123.572V77.8571Z" fill="black"/>
<path d="M20.7143 83.5714H15V89.2857H20.7143V83.5714Z" fill="black"/>
<path d="M26.4282 83.5714H20.7139V89.2857H26.4282V83.5714Z" fill="black"/>
<path d="M32.143 83.5714H26.4287V89.2857H32.143V83.5714Z" fill="black"/>
<path d="M37.8569 83.5714H32.1426V89.2857H37.8569V83.5714Z" fill="black"/>
<path d="M49.2856 83.5714H43.5713V89.2857H49.2856V83.5714Z" fill="black"/>
<path d="M55.0004 83.5714H49.2861V89.2857H55.0004V83.5714Z" fill="black"/>
<path d="M66.4282 83.5714H60.7139V89.2857H66.4282V83.5714Z" fill="black"/>
<path d="M83.5717 83.5714H77.8574V89.2857H83.5717V83.5714Z" fill="black"/>
<path d="M89.2856 83.5714H83.5713V89.2857H89.2856V83.5714Z" fill="black"/>
<path d="M106.428 83.5714H100.714V89.2857H106.428V83.5714Z" fill="black"/>
<path d="M112.143 83.5714H106.429V89.2857H112.143V83.5714Z" fill="black"/>
<path d="M123.572 83.5714H117.857V89.2857H123.572V83.5714Z" fill="black"/>
<path d="M129.286 83.5714H123.571V89.2857H129.286V83.5714Z" fill="black"/>
<path d="M135 83.5714H129.286V89.2857H135V83.5714Z" fill="black"/>
<path d="M66.4282 89.2857H60.7139V95H66.4282V89.2857Z" fill="black"/>
<path d="M77.8569 89.2857H72.1426V95H77.8569V89.2857Z" fill="black"/>
<path d="M83.5717 89.2857H77.8574V95H83.5717V89.2857Z" fill="black"/>
<path d="M89.2856 89.2857H83.5713V95H89.2856V89.2857Z" fill="black"/>
<path d="M106.428 89.2857H100.714V95H106.428V89.2857Z" fill="black"/>
<path d="M117.857 89.2857H112.143V95H117.857V89.2857Z" fill="black"/>
<path d="M20.7143 95H15V100.714H20.7143V95Z" fill="black"/>
<path d="M26.4282 95H20.7139V100.714H26.4282V95Z" fill="black"/>
<path d="M32.143 95H26.4287V100.714H32.143V95Z" fill="black"/>
<path d="M37.8569 95H32.1426V100.714H37.8569V95Z" fill="black"/>
<path d="M43.5717 95H37.8574V100.714H43.5717V95Z" fill="black"/>
<path d="M49.2856 95H43.5713V100.714H49.2856V95Z" fill="black"/>
<path d="M55.0004 95H49.2861V100.714H55.0004V95Z" fill="black"/>
<path d="M66.4282 95H60.7139V100.714H66.4282V95Z" fill="black"/>
<path d="M72.143 95H66.4287V100.714H72.143V95Z" fill="black"/>
<path d="M83.5717 95H77.8574V100.714H83.5717V95Z" fill="black"/>
<path d="M100.714 95H95V100.714H100.714V95Z" fill="black"/>
<path d="M112.143 95H106.429V100.714H112.143V95Z" fill="black"/>
<path d="M117.857 95H112.143V100.714H117.857V95Z" fill="black"/>
<path d="M135 95H129.286V100.714H135V95Z" fill="black"/>
<path d="M20.7143 100.714H15V106.429H20.7143V100.714Z" fill="black"/>
<path d="M55.0004 100.714H49.2861V106.429H55.0004V100.714Z" fill="black"/>
<path d="M66.4282 100.714H60.7139V106.429H66.4282V100.714Z" fill="black"/>
<path d="M72.143 100.714H66.4287V106.429H72.143V100.714Z" fill="black"/>
<path d="M77.8569 100.714H72.1426V106.429H77.8569V100.714Z" fill="black"/>
<path d="M83.5717 100.714H77.8574V106.429H83.5717V100.714Z" fill="black"/>
<path d="M106.428 100.714H100.714V106.429H106.428V100.714Z" fill="black"/>
<path d="M112.143 100.714H106.429V106.429H112.143V100.714Z" fill="black"/>
<path d="M135 100.714H129.286V106.429H135V100.714Z" fill="black"/>
<path d="M20.7143 106.429H15V112.143H20.7143V106.429Z" fill="black"/>
<path d="M32.143 106.429H26.4287V112.143H32.143V106.429Z" fill="black"/>
<path d="M37.8569 106.429H32.1426V112.143H37.8569V106.429Z" fill="black"/>
<path d="M43.5717 106.429H37.8574V112.143H43.5717V106.429Z" fill="black"/>
<path d="M55.0004 106.429H49.2861V112.143H55.0004V106.429Z" fill="black"/>
<path d="M72.143 106.429H66.4287V112.143H72.143V106.429Z" fill="black"/>
<path d="M89.2856 106.429H83.5713V112.143H89.2856V106.429Z" fill="black"/>
<path d="M95.0004 106.429H89.2861V112.143H95.0004V106.429Z" fill="black"/>
<path d="M112.143 106.429H106.429V112.143H112.143V106.429Z" fill="black"/>
<path d="M123.572 106.429H117.857V112.143H123.572V106.429Z" fill="black"/>
<path d="M129.286 106.429H123.571V112.143H129.286V106.429Z" fill="black"/>
<path d="M20.7143 112.143H15V117.857H20.7143V112.143Z" fill="black"/>
<path d="M32.143 112.143H26.4287V117.857H32.143V112.143Z" fill="black"/>
<path d="M37.8569 112.143H32.1426V117.857H37.8569V112.143Z" fill="black"/>
<path d="M43.5717 112.143H37.8574V117.857H43.5717V112.143Z" fill="black"/>
<path d="M55.0004 112.143H49.2861V117.857H55.0004V112.143Z" fill="black"/>
<path d="M77.8569 112.143H72.1426V117.857H77.8569V112.143Z" fill="black"/>
<path d="M83.5717 112.143H77.8574V117.857H83.5717V112.143Z" fill="black"/>
<path d="M95.0004 112.143H89.2861V117.857H95.0004V112.143Z" fill="black"/>
<path d="M100.714 112.143H95V117.857H100.714V112.143Z" fill="black"/>
<path d="M112.143 112.143H106.429V117.857H112.143V112.143Z" fill="black"/>
<path d="M129.286 112.143H123.571V117.857H129.286V112.143Z" fill="black"/>
<path d="M20.7143 117.857H15V123.571H20.7143V117.857Z" fill="black"/>
<path d="M32.143 117.857H26.4287V123.571H32.143V117.857Z" fill="black"/>
<path d="M37.8569 117.857H32.1426V123.571H37.8569V117.857Z" fill="black"/>
<path d="M43.5717 117.857H37.8574V123.571H43.5717V117.857Z" fill="black"/>
<path d="M55.0004 117.857H49.2861V123.571H55.0004V117.857Z" fill="black"/>
<path d="M66.4282 117.857H60.7139V123.571H66.4282V117.857Z" fill="black"/>
<path d="M77.8569 117.857H72.1426V123.571H77.8569V117.857Z" fill="black"/>
<path d="M89.2856 117.857H83.5713V123.571H89.2856V117.857Z" fill="black"/>
<path d="M106.428 117.857H100.714V123.571H106.428V117.857Z" fill="black"/>
<path d="M112.143 117.857H106.429V123.571H112.143V117.857Z" fill="black"/>
<path d="M117.857 117.857H112.143V123.571H117.857V117.857Z" fill="black"/>
<path d="M129.286 117.857H123.571V123.571H129.286V117.857Z" fill="black"/>
<path d="M135 117.857H129.286V123.571H135V117.857Z" fill="black"/>
<path d="M20.7143 123.571H15V129.286H20.7143V123.571Z" fill="black"/>
<path d="M55.0004 123.571H49.2861V129.286H55.0004V123.571Z" fill="black"/>
<path d="M83.5717 123.571H77.8574V129.286H83.5717V123.571Z" fill="black"/>
<path d="M100.714 123.571H95V129.286H100.714V123.571Z" fill="black"/>
<path d="M106.428 123.571H100.714V129.286H106.428V123.571Z" fill="black"/>
<path d="M112.143 123.571H106.429V129.286H112.143V123.571Z" fill="black"/>
<path d="M117.857 123.571H112.143V129.286H117.857V123.571Z" fill="black"/>
<path d="M123.572 123.571H117.857V129.286H123.572V123.571Z" fill="black"/>
<path d="M129.286 123.571H123.571V129.286H129.286V123.571Z" fill="black"/>
<path d="M135 123.571H129.286V129.286H135V123.571Z" fill="black"/>
<path d="M20.7143 129.286H15V135H20.7143V129.286Z" fill="black"/>
<path d="M26.4282 129.286H20.7139V135H26.4282V129.286Z" fill="black"/>
<path d="M32.143 129.286H26.4287V135H32.143V129.286Z" fill="black"/>
<path d="M37.8569 129.286H32.1426V135H37.8569V129.286Z" fill="black"/>
<path d="M43.5717 129.286H37.8574V135H43.5717V129.286Z" fill="black"/>
<path d="M49.2856 129.286H43.5713V135H49.2856V129.286Z" fill="black"/>
<path d="M55.0004 129.286H49.2861V135H55.0004V129.286Z" fill="black"/>
<path d="M77.8569 129.286H72.1426V135H77.8569V129.286Z" fill="black"/>
<path d="M89.2856 129.286H83.5713V135H89.2856V129.286Z" fill="black"/>
<path d="M112.143 129.286H106.429V135H112.143V129.286Z" fill="black"/>
<path d="M117.857 129.286H112.143V135H117.857V129.286Z" fill="black"/>
<path d="M135 129.286H129.286V135H135V129.286Z" fill="black"/>
</g>
<defs>
<clipPath id="clip0_601_4482">
<rect width="120" height="120" fill="white" transform="translate(15 15)"/>
</clipPath>
</defs>
</svg>
