<svg width="102" height="102" viewBox="0 0 102 102" fill="none" xmlns="http://www.w3.org/2000/svg">
<g opacity="0.25">
<path d="M71 51C71 62.0457 62.0457 71 51 71C39.9543 71 31 62.0457 31 51C31 39.9543 39.9543 31 51 31C62.0457 31 71 39.9543 71 51Z" stroke="#097990" stroke-width="2" stroke-linejoin="round"/>
<path fill-rule="evenodd" clip-rule="evenodd" d="M51 101C78.6142 101 101 78.6142 101 51C101 23.3858 78.6142 1 51 1C23.3858 1 1 23.3858 1 51C1 78.6142 23.3858 101 51 101ZM51 86C70.33 86 86 70.33 86 51C86 31.67 70.33 16 51 16C31.67 16 16 31.67 16 51C16 70.33 31.67 86 51 86ZM71 51C71 62.0457 62.0457 71 51 71C39.9543 71 31 62.0457 31 51C31 39.9543 39.9543 31 51 31C62.0457 31 71 39.9543 71 51Z" stroke="#097990" stroke-width="2" stroke-linejoin="round"/>
<path fill-rule="evenodd" clip-rule="evenodd" d="M86 51C86 70.33 70.33 86 51 86C31.67 86 16 70.33 16 51C16 31.67 31.67 16 51 16C70.33 16 86 31.67 86 51ZM51 71C62.0457 71 71 62.0457 71 51C71 39.9543 62.0457 31 51 31C39.9543 31 31 39.9543 31 51C31 62.0457 39.9543 71 51 71Z" stroke="#097990" stroke-width="2" stroke-linejoin="round"/>
</g>
<path fill-rule="evenodd" clip-rule="evenodd" d="M86 51C86 70.33 70.33 86 51 86C31.67 86 16 70.33 16 51C16 31.67 31.67 16 51 16C70.33 16 86 31.67 86 51ZM51 71C62.0457 71 71 62.0457 71 51C71 39.9543 62.0457 31 51 31C39.9543 31 31 39.9543 31 51C31 62.0457 39.9543 71 51 71Z" stroke="#097990" stroke-width="2" stroke-linejoin="round"/>
</svg>
