<svg width="102" height="103" viewBox="0 0 102 103" fill="none" xmlns="http://www.w3.org/2000/svg">
<path opacity="0.25" d="M15.6447 86.8556C35.1709 106.382 66.8291 106.382 86.3553 86.8556C105.882 67.3294 105.882 35.6711 86.3553 16.1449M15.6447 86.8556C-3.88155 67.3294 -3.88155 35.6711 15.6447 16.1449C35.1709 -3.38132 66.8291 -3.38132 86.3553 16.1449M15.6447 86.8556C25.4078 96.6187 41.2369 96.6186 51 86.8555C60.7631 77.0924 60.7631 61.2633 51 51.5002M15.6447 86.8556C5.88155 77.0925 5.88159 61.2633 15.6447 51.5002C25.4078 41.7371 41.2369 41.7371 51 51.5002M86.3553 16.1449C76.5922 6.38178 60.7631 6.38175 51 16.1449C41.2369 25.908 41.2369 41.7371 51 51.5002M86.3553 16.1449C96.1184 25.908 96.1185 41.7371 86.3554 51.5002C76.5923 61.2633 60.7631 61.2633 51 51.5002" stroke="#097990" stroke-width="2" stroke-linejoin="round"/>
<path d="M51.0001 51.5003C60.7632 61.2634 76.5923 61.2634 86.3554 51.5003C96.1185 41.7372 96.1185 25.9081 86.3554 16.145C76.5923 6.38184 60.7632 6.38182 51.0001 16.1449C41.237 25.908 41.237 41.7372 51.0001 51.5003ZM51.0001 51.5003C41.237 41.7372 25.4079 41.7372 15.6448 51.5003C5.88165 61.2634 5.88162 77.0925 15.6447 86.8556C25.4078 96.6187 41.237 96.6187 51.0001 86.8556C60.7632 77.0925 60.7632 61.2634 51.0001 51.5003Z" stroke="#097990" stroke-width="2" stroke-linejoin="round"/>
</svg>
