<svg width="102" height="102" viewBox="0 0 102 102" fill="none" xmlns="http://www.w3.org/2000/svg">
<path opacity="0.25" d="M101 51C101 78.6142 78.6142 101 51 101C23.3858 101 1 78.6142 1 51C1 23.3858 23.3858 1 51 1C78.6142 1 101 23.3858 101 51ZM101 51C101 68.837 86.5403 83.2966 68.7034 83.2966C50.8664 83.2966 36.4067 68.8369 36.4067 51C36.4067 33.163 50.8664 18.7033 68.7034 18.7033C86.5403 18.7033 101 33.1631 101 51Z" stroke="#097990" stroke-width="2" stroke-linejoin="round"/>
<path d="M101 50.9998C101 68.8368 86.5398 83.2964 68.7029 83.2964C50.866 83.2964 36.4062 68.8367 36.4062 50.9998C36.4062 33.1628 50.866 18.7031 68.7029 18.7031C86.5398 18.7031 101 33.1629 101 50.9998Z" stroke="#097990" stroke-width="2" stroke-linejoin="round"/>
</svg>
