<svg width="512" height="512" viewBox="0 0 512 512" fill="none" xmlns="http://www.w3.org/2000/svg">
<g clip-path="url(#clip0_25972_265262)">
<path d="M254.55 495.54C379.676 495.54 481.11 394.106 481.11 268.98C481.11 143.854 379.676 42.4199 254.55 42.4199C129.425 42.4199 27.9902 143.854 27.9902 268.98C27.9902 394.106 129.425 495.54 254.55 495.54Z" fill="#DEE9FC"/>
<path d="M376.72 221.111C370.173 204.517 360.328 189.424 347.781 176.744C335.233 164.064 320.244 154.061 303.72 147.341L356.21 17.8105C390.306 31.6888 421.233 52.3386 447.12 78.511C473.007 104.683 493.316 135.835 506.82 170.081L376.72 221.111Z" fill="#5C6FFB"/>
<path d="M254.54 512.17C120.45 512.17 11.3501 403.07 11.3501 268.98H44.6301C44.6301 384.73 138.79 478.9 254.54 478.9V512.17Z" fill="#2A3EFB"/>
<path d="M341.4 508.31L320.83 451.64C358.295 437.953 390.657 413.099 413.547 380.434C436.438 347.769 448.753 308.867 448.83 268.98H509.11C509.08 375.72 441.7 471.9 341.4 508.31Z" fill="#89A1FC"/>
<path d="M254.54 386.17C223.451 386.17 193.636 373.821 171.653 351.838C149.67 329.855 137.32 300.039 137.32 268.95C137.32 237.862 149.67 208.046 171.653 186.063C193.636 164.08 223.451 151.73 254.54 151.73V213.73C243.611 213.732 232.928 216.975 223.842 223.048C214.756 229.122 207.674 237.753 203.493 247.85C199.312 257.948 198.219 269.059 200.353 279.777C202.486 290.496 207.75 300.341 215.479 308.069C223.207 315.796 233.054 321.058 243.773 323.189C254.492 325.321 265.602 324.226 275.699 320.043C285.796 315.86 294.426 308.777 300.498 299.69C306.569 290.603 309.81 279.919 309.81 268.99H371.81C371.762 300.07 359.389 329.861 337.404 351.828C315.419 373.796 285.619 386.147 254.54 386.17Z" fill="#2A3EFB"/>
<path d="M80.28 209.33L0 181.86C18.1705 128.793 52.4756 82.7326 98.1157 50.1243C143.756 17.516 198.448 -0.00941405 254.54 3.79375e-06V84.85C216.141 84.8375 178.698 96.8305 147.452 119.151C116.206 141.471 92.7197 173.001 80.28 209.33Z" fill="#2A3EFB"/>
</g>
<defs>
<clipPath id="clip0_25972_265262">
<rect width="512" height="512" fill="white"/>
</clipPath>
</defs>
</svg>
