<svg width="132" height="132" viewBox="0 0 132 132" fill="none" xmlns="http://www.w3.org/2000/svg">
<g opacity="0.25">
<path d="M92 66C92 80.3594 80.3594 92 66 92C51.6406 92 40 80.3594 40 66C40 51.6406 51.6406 40 66 40C80.3594 40 92 51.6406 92 66Z" stroke="#097990" stroke-width="1.5" stroke-linejoin="round"/>
<path fill-rule="evenodd" clip-rule="evenodd" d="M66 131C101.899 131 131 101.899 131 66C131 30.1015 101.899 1 66 1C30.1015 1 1 30.1015 1 66C1 101.899 30.1015 131 66 131ZM66 111.5C91.129 111.5 111.5 91.129 111.5 66C111.5 40.871 91.129 20.5 66 20.5C40.871 20.5 20.5 40.871 20.5 66C20.5 91.129 40.871 111.5 66 111.5ZM92 66C92 80.3594 80.3594 92 66 92C51.6406 92 40 80.3594 40 66C40 51.6406 51.6406 40 66 40C80.3594 40 92 51.6406 92 66Z" stroke="#097990" stroke-width="1.5" stroke-linejoin="round"/>
<path fill-rule="evenodd" clip-rule="evenodd" d="M111.5 66C111.5 91.129 91.129 111.5 66 111.5C40.871 111.5 20.5 91.129 20.5 66C20.5 40.871 40.871 20.5 66 20.5C91.129 20.5 111.5 40.871 111.5 66ZM66 92C80.3594 92 92 80.3594 92 66C92 51.6406 80.3594 40 66 40C51.6406 40 40 51.6406 40 66C40 80.3594 51.6406 92 66 92Z" stroke="#097990" stroke-width="1.5" stroke-linejoin="round"/>
</g>
<path fill-rule="evenodd" clip-rule="evenodd" d="M111.5 66C111.5 91.129 91.129 111.5 66 111.5C40.871 111.5 20.5 91.129 20.5 66C20.5 40.871 40.871 20.5 66 20.5C91.129 20.5 111.5 40.871 111.5 66ZM66 92C80.3594 92 92 80.3594 92 66C92 51.6406 80.3594 40 66 40C51.6406 40 40 51.6406 40 66C40 80.3594 51.6406 92 66 92Z" stroke="#097990" stroke-width="1.5" stroke-linejoin="round"/>
</svg>
