<svg width="132" height="132" viewBox="0 0 132 132" fill="none" xmlns="http://www.w3.org/2000/svg">
<path opacity="0.25" d="M20.0381 111.962C45.4221 137.346 86.5779 137.346 111.962 111.962C137.346 86.5779 137.346 45.4222 111.962 20.0381M20.0381 111.962C-5.34601 86.5779 -5.34601 45.4222 20.0381 20.0381C45.4221 -5.34597 86.5779 -5.34597 111.962 20.0381M20.0381 111.962C32.7301 124.654 53.308 124.654 66 111.962C78.6921 99.2699 78.6921 78.6921 66 66M20.0381 111.962C7.34602 99.2699 7.34607 78.692 20.0381 66C32.7301 53.308 53.308 53.308 66 66M111.962 20.0381C99.2699 7.34607 78.6921 7.34604 66 20.0381C53.308 32.7301 53.308 53.308 66 66M111.962 20.0381C124.654 32.7301 124.654 53.308 111.962 66C99.2699 78.692 78.6921 78.6921 66 66" stroke="#097990" stroke-width="2" stroke-linejoin="round"/>
<path d="M66 66C78.6921 78.692 99.2699 78.692 111.962 66C124.654 53.308 124.654 32.7301 111.962 20.0381C99.2699 7.34606 78.6921 7.34602 66 20.0381C53.308 32.7301 53.308 53.308 66 66ZM66 66C53.308 53.308 32.7301 53.308 20.0381 66C7.34606 78.692 7.34601 99.2699 20.038 111.962C32.7301 124.654 53.308 124.654 66 111.962C78.6921 99.2699 78.6921 78.692 66 66Z" stroke="#097990" stroke-width="2" stroke-linejoin="round"/>
</svg>
