<svg width="132" height="132" viewBox="0 0 132 132" fill="none" xmlns="http://www.w3.org/2000/svg">
<path opacity="0.25" d="M131 66C131 101.899 101.899 131 66 131C30.1015 131 1 101.899 1 66C1 30.1015 30.1015 1 66 1C101.899 1 131 30.1015 131 66ZM131 66C131 89.188 112.202 107.986 89.0144 107.986C65.8264 107.986 47.0288 89.188 47.0288 66C47.0288 42.8119 65.8264 24.0143 89.0144 24.0143C112.202 24.0143 131 42.812 131 66Z" stroke="#097990" stroke-width="1.5" stroke-linejoin="round"/>
<path d="M130.999 65.9999C130.999 89.1879 112.202 107.985 89.0138 107.985C65.8257 107.985 47.0281 89.1878 47.0281 65.9998C47.0281 42.8118 65.8257 24.0142 89.0138 24.0142C112.202 24.0142 130.999 42.8118 130.999 65.9999Z" stroke="#097990" stroke-width="1.5" stroke-linejoin="round"/>
</svg>
