<svg width="142" height="142" viewBox="0 0 142 142" fill="none" xmlns="http://www.w3.org/2000/svg">
<path opacity="0.15" d="M106.355 106.566L71 71.2107L35.6447 35.8553M106.355 106.566C112.134 100.787 116.203 93.945 118.561 86.6695M106.355 106.566C100.576 112.345 93.7343 116.414 86.4588 118.772M35.6447 106.566L87.0513 55.1594M35.6447 106.566C49.3917 120.313 69.1522 124.382 86.4588 118.772M35.6447 106.566C21.8976 92.8189 17.8289 73.0585 23.4386 55.7519M35.6447 35.8553C29.8655 41.6345 25.7968 48.4764 23.4386 55.7519M35.6447 35.8553C41.4238 30.0762 48.2657 26.0075 55.5412 23.6492M106.355 35.8553L87.0513 55.1594M106.355 35.8553C120.102 49.6024 124.171 69.3629 118.561 86.6695M106.355 35.8553C92.6083 22.1083 72.8478 18.0396 55.5412 23.6492M87.0513 55.1594L118.561 86.6695M87.0513 55.1594L55.5412 23.6492M86.4588 118.772L23.4386 55.7519" stroke="#097990" stroke-width="1.5" stroke-linejoin="round"/>
<ellipse opacity="0.75" cx="71" cy="71.2106" rx="50" ry="19.2" transform="rotate(135 71 71.2106)" stroke="#097990" stroke-width="1.5" stroke-linejoin="round"/>
<ellipse opacity="0.5" cx="71" cy="71.2106" rx="50" ry="36.8" transform="rotate(135 71 71.2106)" stroke="#097990" stroke-width="1.5" stroke-linejoin="round"/>
</svg>
