<svg width="102" height="102" viewBox="0 0 102 102" fill="none" xmlns="http://www.w3.org/2000/svg">
<path opacity="0.25" d="M15.6447 86.3553C35.1709 105.882 66.8291 105.882 86.3553 86.3553C105.882 66.8291 105.882 35.1709 86.3553 15.6446M15.6447 86.3553C-3.88155 66.8291 -3.88155 35.1709 15.6447 15.6446C35.1709 -3.88157 66.8291 -3.88157 86.3553 15.6446M15.6447 86.3553C25.4078 96.1184 41.2369 96.1184 51 86.3553C60.7631 76.5922 60.7631 60.7631 51 51M15.6447 86.3553C5.88155 76.5922 5.88159 60.7631 15.6447 51C25.4078 41.2368 41.2369 41.2368 51 51M86.3553 15.6446C76.5922 5.88154 60.7631 5.88151 51 15.6446C41.2369 25.4077 41.2369 41.2368 51 51M86.3553 15.6446C96.1184 25.4078 96.1185 41.2368 86.3554 51C76.5923 60.7631 60.7631 60.7631 51 51" stroke="#086C80" stroke-width="1.5" stroke-linejoin="round"/>
<path d="M51.0001 51C60.7632 60.7631 76.5923 60.7631 86.3554 51C96.1185 41.2368 96.1185 25.4078 86.3554 15.6446C76.5923 5.88154 60.7632 5.88151 51.0001 15.6446C41.237 25.4077 41.237 41.2369 51.0001 51ZM51.0001 51C41.237 41.2369 25.4079 41.2368 15.6448 51C5.88165 60.7631 5.88162 76.5922 15.6447 86.3553C25.4078 96.1184 41.237 96.1184 51.0001 86.3553C60.7632 76.5922 60.7632 60.7631 51.0001 51Z" stroke="#086C80" stroke-width="1.5" stroke-linejoin="round"/>
</svg>
