<svg width="630" height="341" viewBox="0 0 630 341" fill="none" xmlns="http://www.w3.org/2000/svg">
<path opacity="0.1" d="M-20 335.5C-20.0001 520.239 129.761 670 314.5 670C499.239 670 649 520.24 649 335.5M-20 335.5C-20 150.761 129.761 1.00022 314.5 1.00023C499.239 1.00024 649 150.761 649 335.5M-20 335.5C-20 427.87 54.8807 502.75 147.25 502.75C239.62 502.75 314.5 427.87 314.5 335.5M-20 335.5C-20 243.131 54.8807 168.25 147.25 168.25C239.62 168.25 314.5 243.131 314.5 335.5M649 335.5C649 243.131 574.12 168.25 481.75 168.25C389.381 168.25 314.5 243.131 314.5 335.5M649 335.5C649 427.87 574.12 502.75 481.75 502.75C389.381 502.75 314.5 427.87 314.5 335.5" stroke="white" stroke-width="2" stroke-linejoin="round"/>
</svg>
