<svg width="102" height="102" viewBox="0 0 102 102" fill="none" xmlns="http://www.w3.org/2000/svg">
<path opacity="0.25" d="M101 51C101 78.6142 78.6142 101 51 101M101 51C101 23.3858 78.6142 1 51 1M101 51H67.2028M51 101C23.3858 101 1 78.6142 1 51M51 101V67.2028M1 51C1 23.3858 23.3858 1 51 1M1 51H34.7972M51 1V34.7972M67.2028 51C67.2028 59.9486 59.9486 67.2028 51 67.2028M67.2028 51C67.2028 42.0515 59.9486 34.7972 51 34.7972M51 67.2028C42.0515 67.2028 34.7972 59.9486 34.7972 51M34.7972 51C34.7972 42.0515 42.0515 34.7972 51 34.7972" stroke="#086C80" stroke-width="1.5" stroke-linejoin="round"/>
<path d="M67.2024 50.9997C67.2024 59.9482 59.9482 67.2024 50.9997 67.2024C42.0511 67.2024 34.7969 59.9482 34.7969 50.9997C34.7969 42.0511 42.0511 34.7969 50.9997 34.7969C59.9482 34.7969 67.2024 42.0511 67.2024 50.9997Z" stroke="#086C80" stroke-width="1.5" stroke-linejoin="round"/>
</svg>
