<svg width="50" height="50" viewBox="0 0 50 50" fill="none" xmlns="http://www.w3.org/2000/svg">
<rect x="0.5" y="0.5" width="49" height="49" rx="24.5" fill="white"/>
<rect x="0.5" y="0.5" width="49" height="49" rx="24.5" stroke="#E6E6E6"/>
<path d="M32 16.6022L28.9946 32.2923C28.9946 32.2923 28.5741 33.3801 27.4189 32.8584L20.4846 27.3526L20.4524 27.3364C21.3891 26.4654 28.6524 19.7027 28.9698 19.3961C29.4613 18.9214 29.1562 18.6387 28.5856 18.9974L17.8568 26.053L13.7176 24.6108C13.7176 24.6108 13.0663 24.3708 13.0036 23.8491C12.9401 23.3265 13.7391 23.0439 13.7391 23.0439L30.6131 16.1889C30.6131 16.1889 32 15.5579 32 16.6022Z" fill="black"/>
</svg>
