<svg width="333" height="367" viewBox="0 0 333 367" fill="none" xmlns="http://www.w3.org/2000/svg">
<path d="M519.425 6.33048C519.718 6.03757 519.718 5.56272 519.425 5.26981L514.652 0.496865C514.359 0.203957 513.884 0.203957 513.591 0.496865C513.298 0.789773 513.298 1.26463 513.591 1.55753L517.834 5.80015L513.591 10.0428C513.298 10.3357 513.298 10.8106 513.591 11.1035C513.884 11.3963 514.359 11.3963 514.652 11.1035L519.425 6.33048ZM519.425 112.057C519.718 111.764 519.718 111.289 519.425 110.996L514.652 106.223C514.359 105.93 513.884 105.93 513.591 106.223C513.298 106.516 513.298 106.991 513.591 107.284L517.834 111.526L513.591 115.769C513.298 116.062 513.298 116.537 513.591 116.83C513.884 117.123 514.359 117.123 514.652 116.83L519.425 112.057ZM519.425 216.646C519.718 216.353 519.718 215.879 519.425 215.586L514.652 210.813C514.359 210.52 513.884 210.52 513.591 210.813C513.298 211.106 513.298 211.58 513.591 211.873L517.834 216.116L513.591 220.359C513.298 220.652 513.298 221.126 513.591 221.419C513.884 221.712 514.359 221.712 514.652 221.419L519.425 216.646ZM519.425 323.509C519.718 323.217 519.718 322.742 519.425 322.449L514.652 317.676C514.359 317.383 513.884 317.383 513.591 317.676C513.298 317.969 513.298 318.444 513.591 318.736L517.834 322.979L513.591 327.222C513.298 327.515 513.298 327.989 513.591 328.282C513.884 328.575 514.359 328.575 514.652 328.282L519.425 323.509ZM519.425 428.099C519.718 427.806 519.718 427.331 519.425 427.038L514.652 422.265C514.359 421.972 513.884 421.972 513.591 422.265C513.298 422.558 513.298 423.033 513.591 423.326L517.834 427.568L513.591 431.811C513.298 432.104 513.298 432.579 513.591 432.872C513.884 433.165 514.359 433.165 514.652 432.872L519.425 428.099ZM1.55005 524.2C1.55006 238.309 233.174 6.55016 518.895 6.55015L518.895 5.05015C232.344 5.05016 0.0500613 237.482 0.0500488 524.2L1.55005 524.2ZM107.214 524.2C107.214 296.7 291.53 112.276 518.895 112.276L518.895 110.776C290.701 110.776 105.714 295.873 105.714 524.2L107.214 524.2ZM211.742 524.2C211.742 354.464 349.259 216.866 518.895 216.866L518.895 215.366C348.43 215.366 210.242 353.636 210.242 524.2L211.742 524.2ZM318.542 524.2C318.542 413.483 408.243 323.729 518.895 323.729L518.895 322.229C407.414 322.229 317.042 412.655 317.042 524.2L318.542 524.2ZM423.07 524.2C423.07 471.246 465.973 428.318 518.895 428.318L518.895 426.818C465.143 426.818 421.57 470.418 421.57 524.2L423.07 524.2Z" fill="url(#paint0_linear_371_8410)"/>
<defs>
<linearGradient id="paint0_linear_371_8410" x1="323.5" y1="-46.5" x2="725.5" y2="599" gradientUnits="userSpaceOnUse">
<stop stop-color="white" stop-opacity="0"/>
<stop offset="1" stop-color="white"/>
</linearGradient>
</defs>
</svg>
