<svg width="300" height="393" viewBox="0 0 300 393" fill="none" xmlns="http://www.w3.org/2000/svg">
<g opacity="0.05">
<path d="M-21.4697 -21.2553C-21.7626 -21.5481 -22.2374 -21.5481 -22.5303 -21.2553L-27.3033 -16.4823C-27.5962 -16.1894 -27.5962 -15.7145 -27.3033 -15.4216C-27.0104 -15.1287 -26.5355 -15.1287 -26.2427 -15.4216L-22 -19.6643L-17.7574 -15.4216C-17.4645 -15.1287 -16.9896 -15.1287 -16.6967 -15.4216C-16.4038 -15.7145 -16.4038 -16.1894 -16.6967 -16.4823L-21.4697 -21.2553ZM66.6356 -21.2553C66.3427 -21.5482 65.8678 -21.5482 65.5749 -21.2553L60.8019 -16.4823C60.5091 -16.1894 60.5091 -15.7145 60.8019 -15.4216C61.0948 -15.1288 61.5697 -15.1288 61.8626 -15.4216L66.1052 -19.6643L70.3479 -15.4216C70.6408 -15.1288 71.1157 -15.1288 71.4085 -15.4216C71.7014 -15.7145 71.7014 -16.1894 71.4085 -16.4823L66.6356 -21.2553ZM153.793 -21.2552C153.501 -21.5481 153.026 -21.5481 152.733 -21.2552L147.96 -16.4823C147.667 -16.1894 147.667 -15.7145 147.96 -15.4216C148.253 -15.1287 148.728 -15.1287 149.021 -15.4216L153.263 -19.6643L157.506 -15.4216C157.799 -15.1287 158.274 -15.1287 158.566 -15.4216C158.859 -15.7145 158.859 -16.1894 158.566 -16.4823L153.793 -21.2552ZM242.846 -21.2552C242.553 -21.5481 242.078 -21.5481 241.785 -21.2552L237.012 -16.4823C236.72 -16.1894 236.72 -15.7145 237.012 -15.4216C237.305 -15.1287 237.78 -15.1287 238.073 -15.4216L242.316 -19.6643L246.558 -15.4216C246.851 -15.1287 247.326 -15.1287 247.619 -15.4216C247.912 -15.7145 247.912 -16.1894 247.619 -16.4823L242.846 -21.2552ZM330.004 -21.2552C329.711 -21.5481 329.236 -21.5481 328.943 -21.2552L324.17 -16.4823C323.877 -16.1894 323.877 -15.7145 324.17 -15.4216C324.463 -15.1287 324.938 -15.1287 325.231 -15.4216L329.474 -19.6643L333.716 -15.4216C334.009 -15.1287 334.484 -15.1287 334.777 -15.4216C335.07 -15.7145 335.07 -16.1894 334.777 -16.4823L330.004 -21.2552ZM410 411.23C171.828 411.23 -21.25 217.838 -21.25 -20.7249L-22.75 -20.7249C-22.75 218.664 170.998 412.73 410 412.73L410 411.23ZM410 322.981C220.487 322.981 66.8552 169.1 66.8552 -20.7249L65.3552 -20.7249C65.3552 169.926 219.657 324.481 410 324.481L410 322.981ZM410 235.681C268.623 235.681 154.013 120.885 154.013 -20.7249L152.513 -20.7249C152.513 121.711 267.793 237.181 410 237.181L410 235.681ZM410 146.483C317.806 146.483 243.066 71.6226 243.066 -20.7249L241.566 -20.7249C241.566 72.4487 316.975 147.983 410 147.983L410 146.483ZM410 59.1828C365.942 59.1828 330.224 23.4081 330.224 -20.7249L328.724 -20.7249C328.724 24.2342 365.111 60.6828 410 60.6828L410 59.1828Z" fill="url(#paint0_linear_601_4477)"/>
</g>
<defs>
<linearGradient id="paint0_linear_601_4477" x1="-22" y1="500.376" x2="399.44" y2="-26.3817" gradientUnits="userSpaceOnUse">
<stop stop-color="white" stop-opacity="0"/>
<stop offset="1" stop-color="white"/>
</linearGradient>
</defs>
</svg>
