<svg width="404" height="388" viewBox="0 0 404 388" fill="none" xmlns="http://www.w3.org/2000/svg">
<path d="M6.07026 -20.7489C5.77738 -21.0418 5.3025 -21.0418 5.00962 -20.7489L0.236638 -15.9759C-0.0562695 -15.683 -0.0562696 -15.2081 0.236638 -14.9152C0.529515 -14.6224 1.0044 -14.6224 1.29731 -14.9152L5.53992 -19.1579L9.78257 -14.9152C10.0755 -14.6223 10.5504 -14.6223 10.8432 -14.9152C11.1361 -15.2081 11.1361 -15.683 10.8432 -15.9759L6.07026 -20.7489ZM89.6724 -20.7489C89.3795 -21.0417 88.9046 -21.0417 88.6117 -20.7489L83.8388 -15.9759C83.5458 -15.683 83.5458 -15.2081 83.8387 -14.9152C84.1316 -14.6223 84.6065 -14.6223 84.8994 -14.9152L89.142 -19.1579L93.3847 -14.9152C93.6776 -14.6223 94.1524 -14.6223 94.4453 -14.9152C94.7382 -15.2081 94.7382 -15.683 94.4453 -15.9759L89.6724 -20.7489ZM172.376 -20.7488C172.083 -21.0417 171.608 -21.0417 171.315 -20.7488L166.542 -15.9759C166.249 -15.6829 166.249 -15.2081 166.542 -14.9152C166.835 -14.6223 167.31 -14.6223 167.603 -14.9152L171.845 -19.1578L176.088 -14.9152C176.381 -14.6223 176.856 -14.6223 177.149 -14.9152C177.441 -15.2081 177.441 -15.6829 177.149 -15.9759L172.376 -20.7488ZM256.877 -20.7488C256.584 -21.0417 256.109 -21.0417 255.816 -20.7488L251.043 -15.9758C250.75 -15.6829 250.75 -15.2081 251.043 -14.9152C251.336 -14.6223 251.811 -14.6223 252.104 -14.9152L256.346 -19.1578L260.589 -14.9152C260.882 -14.6223 261.357 -14.6223 261.65 -14.9152C261.942 -15.2081 261.942 -15.6829 261.65 -15.9758L256.877 -20.7488ZM339.58 -20.7488C339.287 -21.0417 338.812 -21.0417 338.519 -20.7488L333.746 -15.9758C333.453 -15.6829 333.453 -15.208 333.746 -14.9152C334.039 -14.6223 334.514 -14.6223 334.807 -14.9152L339.049 -19.1578L343.292 -14.9152C343.585 -14.6223 344.06 -14.6223 344.353 -14.9152C344.646 -15.208 344.646 -15.6829 344.353 -15.9758L339.58 -20.7488ZM415.46 388.71C189.481 388.71 6.2899 205.626 6.28992 -20.2185L4.78992 -20.2185C4.7899 206.455 188.653 390.21 415.46 390.21L415.46 388.71ZM415.46 305.157C235.653 305.157 89.892 159.481 89.892 -20.2185L88.392 -20.2185C88.392 160.31 234.826 306.657 415.46 306.657L415.46 305.157ZM415.46 222.503C281.329 222.503 172.595 113.832 172.595 -20.2185L171.095 -20.2185C171.095 114.662 280.501 224.003 415.46 224.003L415.46 222.503ZM415.46 138.051C327.998 138.051 257.096 67.1912 257.096 -20.2185L255.596 -20.2185C255.596 68.0204 327.17 139.551 415.46 139.551L415.46 138.051ZM415.46 55.397C373.673 55.397 339.799 21.5424 339.799 -20.2185L338.299 -20.2185C338.299 22.3717 372.846 56.897 415.46 56.897L415.46 55.397Z" fill="url(#paint0_linear_266_9147)"/>
<defs>
<linearGradient id="paint0_linear_266_9147" x1="73" y1="377" x2="691.5" y2="-292" gradientUnits="userSpaceOnUse">
<stop stop-color="white" stop-opacity="0"/>
<stop offset="1" stop-color="white"/>
</linearGradient>
</defs>
</svg>
