<svg width="50" height="50" viewBox="0 0 50 50" fill="none" xmlns="http://www.w3.org/2000/svg">
<rect x="0.5" y="0.5" width="49" height="49" rx="24.5" fill="white"/>
<rect x="0.5" y="0.5" width="49" height="49" rx="24.5" stroke="#E6E6E6"/>
<path d="M25.9825 31C18.466 31 14.1786 25.7447 14 17H17.7651C17.8888 23.4184 20.6646 26.1371 22.8632 26.6977V17H26.4085V22.5355C28.5796 22.2973 30.8607 19.7748 31.6302 17H35.1755C34.8855 18.4391 34.3075 19.8017 33.4776 21.0025C32.6477 22.2033 31.5837 23.2166 30.3523 23.979C31.7269 24.6756 32.941 25.6615 33.9145 26.8717C34.888 28.082 35.5988 29.489 36 31H32.0974C31.7373 29.6876 31.0054 28.5128 29.9934 27.6228C28.9814 26.7328 27.7343 26.1673 26.4085 25.997V31H25.9825Z" fill="black"/>
</svg>
