<svg width="50" height="50" viewBox="0 0 50 50" fill="none" xmlns="http://www.w3.org/2000/svg">
<rect x="0.5" y="0.5" width="49" height="49" rx="24.5" fill="white"/>
<rect x="0.5" y="0.5" width="49" height="49" rx="24.5" stroke="#E6E6E6"/>
<path d="M31.9268 17.0625C29.9512 15.0937 27.3171 14 24.5366 14C18.7561 14 14.0732 18.6667 14.0732 24.4271C14.0732 26.25 14.5854 28.0729 15.4634 29.6042L14 35L19.561 33.5417C21.0976 34.3438 22.7805 34.7812 24.5366 34.7812C30.3171 34.7812 35 30.1146 35 24.3542C34.9268 21.6563 33.9024 19.0312 31.9268 17.0625ZM29.5854 28.1458C29.3659 28.7292 28.3415 29.3125 27.8293 29.3854C27.3902 29.4583 26.8049 29.4583 26.2195 29.3125C25.8537 29.1667 25.3415 29.0208 24.7561 28.7292C22.122 27.6354 20.439 25.0104 20.2927 24.7917C20.1463 24.6458 19.1951 23.4062 19.1951 22.0937C19.1951 20.7812 19.8537 20.1979 20.0732 19.9062C20.2927 19.6146 20.5854 19.6146 20.8049 19.6146C20.9512 19.6146 21.1707 19.6146 21.3171 19.6146C21.4634 19.6146 21.6829 19.5417 21.9024 20.0521C22.122 20.5625 22.6341 21.875 22.7073 21.9479C22.7805 22.0938 22.7805 22.2396 22.7073 22.3854C22.6341 22.5312 22.561 22.6771 22.4146 22.8229C22.2683 22.9687 22.1219 23.1875 22.0488 23.2604C21.9024 23.4062 21.7561 23.5521 21.9024 23.7708C22.0488 24.0625 22.561 24.8646 23.3659 25.5937C24.3902 26.4687 25.1951 26.7604 25.4878 26.9063C25.7805 27.0521 25.9268 26.9792 26.0732 26.8333C26.2195 26.6875 26.7317 26.1042 26.878 25.8125C27.0244 25.5208 27.2439 25.5938 27.4634 25.6667C27.6829 25.7396 29 26.3958 29.2195 26.5417C29.5122 26.6875 29.6585 26.7604 29.7317 26.8333C29.8049 27.0521 29.8049 27.5625 29.5854 28.1458Z" fill="black"/>
</svg>
